<?xml version="1.0" encoding="UTF-8" standalone="no"?>
<svg
   xmlns:dc="http://purl.org/dc/elements/1.1/"
   xmlns:cc="http://creativecommons.org/ns#"
   xmlns:rdf="http://www.w3.org/1999/02/22-rdf-syntax-ns#"
   xmlns:svg="http://www.w3.org/2000/svg"
   xmlns="http://www.w3.org/2000/svg"
   xmlns:sodipodi="http://sodipodi.sourceforge.net/DTD/sodipodi-0.dtd"
   xmlns:inkscape="http://www.inkscape.org/namespaces/inkscape"
   version="1.2"
   width="177.00949mm"
   height="41.301369mm"
   viewBox="0 0 17700.95 4130.137"
   preserveAspectRatio="xMidYMid"
   xml:space="preserve"
   id="svg2"
   inkscape:version="0.91 r13725"
   sodipodi:docname="ideal.svg"
   style="fill-rule:evenodd;stroke-width:28.22200012;stroke-linejoin:round"><metadata
     id="metadata412"><rdf:RDF><cc:Work
         rdf:about=""><dc:format>image/svg+xml</dc:format><dc:type
           rdf:resource="http://purl.org/dc/dcmitype/StillImage" /><dc:title></dc:title></cc:Work></rdf:RDF></metadata><sodipodi:namedview
     pagecolor="#ffffff"
     bordercolor="#666666"
     borderopacity="1"
     objecttolerance="10"
     gridtolerance="10"
     guidetolerance="10"
     inkscape:pageopacity="0"
     inkscape:pageshadow="2"
     inkscape:window-width="529"
     inkscape:window-height="864"
     id="namedview410"
     showgrid="false"
     fit-margin-top="0"
     fit-margin-left="0"
     fit-margin-right="0"
     fit-margin-bottom="0"
     inkscape:zoom="0.23838384"
     inkscape:cx="22.762081"
     inkscape:cy="-272.72348"
     inkscape:window-x="534"
     inkscape:window-y="16"
     inkscape:window-maximized="0"
     inkscape:current-layer="svg2" /><defs
     class="ClipPathGroup"
     id="defs4"><clipPath
       id="presentation_clip_path"
       clipPathUnits="userSpaceOnUse"><rect
         x="0"
         y="0"
         width="21590"
         height="27940"
         id="rect7" /></clipPath></defs><defs
     id="defs9" /><defs
     id="defs58" /><defs
     class="TextShapeIndex"
     id="defs69" /><defs
     class="EmbeddedBulletChars"
     id="defs73" /><defs
     class="TextEmbeddedBitmaps"
     id="defs102" /><g
     id="g104"
     transform="translate(-1391.7559,-2143)"><g
       id="id2"
       class="Master_Slide"><g
         id="bg-id2"
         class="Background" /><g
         id="bo-id2"
         class="BackgroundObjects" /></g></g><g
     class="SlideGroup"
     id="g109"
     transform="translate(-1391.7559,-2143)"><g
       id="g111"><g
         id="id1"
         class="Slide"
         clip-path="url(#presentation_clip_path)"><g
           class="Page"
           id="g114"><g
             class="com.sun.star.drawing.LineShape"
             id="g116"><g
               id="id3"><path
                 d="m 2270,5572 0,-2999"
                 id="path119"
                 inkscape:connector-curvature="0"
                 style="fill:none;stroke:#000000" /><path
                 d="m 2270,2143 -150,450 300,0 -150,-450 z"
                 id="path121"
                 inkscape:connector-curvature="0"
                 style="fill:#000000;stroke:none" /></g></g><g
             class="com.sun.star.drawing.LineShape"
             id="g123"><g
               id="id4"><path
                 d="m 2270,5572 16080,0"
                 id="path126"
                 inkscape:connector-curvature="0"
                 style="fill:none;stroke:#000000" /><path
                 d="m 18780,5572 -450,-150 0,300 450,-150 z"
                 id="path128"
                 inkscape:connector-curvature="0"
                 style="fill:#000000;stroke:none" /></g></g><g
             class="com.sun.star.drawing.LineShape"
             id="g130"><g
               id="id5"><path
                 d="m 2143,2905 254,0"
                 id="path133"
                 inkscape:connector-curvature="0"
                 style="fill:none;stroke:#000000" /></g></g><g
             class="com.sun.star.drawing.TextShape"
             id="g135"><g
               id="id6"><text
                 class="TextShape"
                 id="text138"><tspan
                   class="TextParagraph"
                   font-size="282px"
                   font-weight="400"
                   id="tspan140"
                   style="font-weight:400;font-size:282px;font-family:Arial, sans-serif"><tspan
                     class="TextPosition"
                     x="1370"
                     y="3000"
                     id="tspan142" /><tspan
                     class="TextPosition"
                     x="1370"
                     y="3000"
                     id="tspan144"><tspan
                       id="tspan146"
                       style="fill:#000000;stroke:none">Peak</tspan></tspan></tspan></text>
</g></g><g
             class="com.sun.star.drawing.TextShape"
             id="g148"><g
               id="id7"><text
                 class="TextShape"
                 id="text151"><tspan
                   class="TextParagraph"
                   font-size="370px"
                   font-weight="400"
                   id="tspan153"
                   style="font-weight:400;font-size:370px;font-family:Arial, sans-serif"><tspan
                     class="TextPosition"
                     x="2647"
                     y="2602"
                     id="tspan155" /><tspan
                     class="TextPosition"
                     x="2647"
                     y="2602"
                     id="tspan157"><tspan
                       id="tspan159"
                       style="fill:#000000;stroke:none">Performance</tspan></tspan></tspan></text>
</g></g><g
             class="com.sun.star.drawing.TextShape"
             id="g161"><g
               id="id8"><text
                 class="TextShape"
                 id="text164"><tspan
                   class="TextParagraph"
                   font-size="353px"
                   font-weight="400"
                   id="tspan166"
                   style="font-weight:400;font-size:353px;font-family:Arial, sans-serif"><tspan
                     class="TextPosition"
                     x="14316"
                     y="6269"
                     id="tspan168" /><tspan
                     class="TextPosition"
                     x="14316"
                     y="6269"
                     id="tspan170"><tspan
                       id="tspan172"
                       style="fill:#000000;stroke:none">Number of method invocations</tspan></tspan></tspan></text>
</g></g><g
             class="com.sun.star.drawing.CustomShape"
             id="g174"><g
               id="id9"><path
                 d="m 5635,5571 -318,0 0,-2667 635,0 0,2667 -317,0 z"
                 id="path177"
                 inkscape:connector-curvature="0"
                 style="fill:#3465a4;stroke:none" /><path
                 d="m 5635,5571 -318,0 0,-2667 635,0 0,2667 -317,0 z"
                 id="path179"
                 inkscape:connector-curvature="0"
                 style="fill:none;stroke:#000000" /></g></g><g
             class="com.sun.star.drawing.CustomShape"
             id="g181"><g
               id="id10"><path
                 d="m 6080,5571 -254,0 0,-2667 508,0 0,2667 -254,0 z"
                 id="path184"
                 inkscape:connector-curvature="0"
                 style="fill:#3465a4;stroke:none" /><path
                 d="m 6080,5571 -254,0 0,-2667 508,0 0,2667 -254,0 z"
                 id="path186"
                 inkscape:connector-curvature="0"
                 style="fill:none;stroke:#000000" /></g></g><g
             class="com.sun.star.drawing.CustomShape"
             id="g188"><g
               id="id11"><path
                 d="m 6588,5571 -254,0 0,-2667 508,0 0,2667 -254,0 z"
                 id="path191"
                 inkscape:connector-curvature="0"
                 style="fill:#3465a4;stroke:none" /><path
                 d="m 6588,5571 -254,0 0,-2667 508,0 0,2667 -254,0 z"
                 id="path193"
                 inkscape:connector-curvature="0"
                 style="fill:none;stroke:#000000" /></g></g><g
             class="com.sun.star.drawing.CustomShape"
             id="g195"><g
               id="id12"><path
                 d="m 7096,5571 -254,0 0,-2667 508,0 0,2667 -254,0 z"
                 id="path198"
                 inkscape:connector-curvature="0"
                 style="fill:#3465a4;stroke:none" /><path
                 d="m 7096,5571 -254,0 0,-2667 508,0 0,2667 -254,0 z"
                 id="path200"
                 inkscape:connector-curvature="0"
                 style="fill:none;stroke:#000000" /></g></g><g
             class="com.sun.star.drawing.TextShape"
             id="g202"><g
               id="id13"><text
                 class="TextShape"
                 id="text205"><tspan
                   class="TextParagraph"
                   font-size="388px"
                   font-weight="700"
                   id="tspan207"
                   style="font-weight:700;font-size:388px;font-family:Arial, sans-serif"><tspan
                     class="TextPosition"
                     x="6049"
                     y="2763"
                     id="tspan209" /><tspan
                     class="TextPosition"
                     x="6049"
                     y="2763"
                     id="tspan211"><tspan
                       id="tspan213"
                       style="fill:#000000;stroke:none">C2</tspan></tspan></tspan></text>
</g></g><g
             class="com.sun.star.drawing.TextShape"
             id="g215"><g
               id="id14"><text
                 class="TextShape"
                 id="text218"><tspan
                   class="TextParagraph"
                   font-size="635px"
                   font-weight="400"
                   id="tspan220"
                   style="font-weight:400;font-size:635px;font-family:Arial, sans-serif"><tspan
                     class="TextPosition"
                     x="17887"
                     y="3914"
                     id="tspan222" /><tspan
                     class="TextPosition"
                     x="17887"
                     y="3914"
                     id="tspan224"><tspan
                       id="tspan226"
                       style="fill:#000000;stroke:none">...</tspan></tspan></tspan></text>
</g></g><g
             class="com.sun.star.drawing.CustomShape"
             id="g228"><g
               id="id15"><path
                 d="m 7667,5571 -318,0 0,-2667 635,0 0,2667 -317,0 z"
                 id="path231"
                 inkscape:connector-curvature="0"
                 style="fill:#3465a4;stroke:none" /><path
                 d="m 7667,5571 -318,0 0,-2667 635,0 0,2667 -317,0 z"
                 id="path233"
                 inkscape:connector-curvature="0"
                 style="fill:none;stroke:#000000" /></g></g><g
             class="com.sun.star.drawing.CustomShape"
             id="g235"><g
               id="id16"><path
                 d="m 8112,5571 -254,0 0,-2667 508,0 0,2667 -254,0 z"
                 id="path238"
                 inkscape:connector-curvature="0"
                 style="fill:#3465a4;stroke:none" /><path
                 d="m 8112,5571 -254,0 0,-2667 508,0 0,2667 -254,0 z"
                 id="path240"
                 inkscape:connector-curvature="0"
                 style="fill:none;stroke:#000000" /></g></g><g
             class="com.sun.star.drawing.CustomShape"
             id="g242"><g
               id="id17"><path
                 d="m 8620,5571 -254,0 0,-2667 508,0 0,2667 -254,0 z"
                 id="path245"
                 inkscape:connector-curvature="0"
                 style="fill:#3465a4;stroke:none" /><path
                 d="m 8620,5571 -254,0 0,-2667 508,0 0,2667 -254,0 z"
                 id="path247"
                 inkscape:connector-curvature="0"
                 style="fill:none;stroke:#000000" /></g></g><g
             class="com.sun.star.drawing.CustomShape"
             id="g249"><g
               id="id18"><path
                 d="m 9128,5571 -254,0 0,-2667 508,0 0,2667 -254,0 z"
                 id="path252"
                 inkscape:connector-curvature="0"
                 style="fill:#3465a4;stroke:none" /><path
                 d="m 9128,5571 -254,0 0,-2667 508,0 0,2667 -254,0 z"
                 id="path254"
                 inkscape:connector-curvature="0"
                 style="fill:none;stroke:#000000" /></g></g><g
             class="com.sun.star.drawing.CustomShape"
             id="g256"><g
               id="id19"><path
                 d="m 3603,5571 -318,0 0,-2667 635,0 0,2667 -317,0 z"
                 id="path259"
                 inkscape:connector-curvature="0"
                 style="fill:#3465a4;stroke:none" /><path
                 d="m 3603,5571 -318,0 0,-2667 635,0 0,2667 -317,0 z"
                 id="path261"
                 inkscape:connector-curvature="0"
                 style="fill:none;stroke:#000000" /></g></g><g
             class="com.sun.star.drawing.CustomShape"
             id="g263"><g
               id="id20"><path
                 d="m 4048,5571 -254,0 0,-2667 508,0 0,2667 -254,0 z"
                 id="path266"
                 inkscape:connector-curvature="0"
                 style="fill:#3465a4;stroke:none" /><path
                 d="m 4048,5571 -254,0 0,-2667 508,0 0,2667 -254,0 z"
                 id="path268"
                 inkscape:connector-curvature="0"
                 style="fill:none;stroke:#000000" /></g></g><g
             class="com.sun.star.drawing.CustomShape"
             id="g270"><g
               id="id21"><path
                 d="m 4556,5571 -254,0 0,-2667 508,0 0,2667 -254,0 z"
                 id="path273"
                 inkscape:connector-curvature="0"
                 style="fill:#3465a4;stroke:none" /><path
                 d="m 4556,5571 -254,0 0,-2667 508,0 0,2667 -254,0 z"
                 id="path275"
                 inkscape:connector-curvature="0"
                 style="fill:none;stroke:#000000" /></g></g><g
             class="com.sun.star.drawing.CustomShape"
             id="g277"><g
               id="id22"><path
                 d="m 5064,5571 -254,0 0,-2667 508,0 0,2667 -254,0 z"
                 id="path280"
                 inkscape:connector-curvature="0"
                 style="fill:#3465a4;stroke:none" /><path
                 d="m 5064,5571 -254,0 0,-2667 508,0 0,2667 -254,0 z"
                 id="path282"
                 inkscape:connector-curvature="0"
                 style="fill:none;stroke:#000000" /></g></g><g
             class="com.sun.star.drawing.CustomShape"
             id="g284"><g
               id="id23"><path
                 d="m 2587,5571 -318,0 0,-2667 635,0 0,2667 -317,0 z"
                 id="path287"
                 inkscape:connector-curvature="0"
                 style="fill:#3465a4;stroke:none" /><path
                 d="m 2587,5571 -318,0 0,-2667 635,0 0,2667 -317,0 z"
                 id="path289"
                 inkscape:connector-curvature="0"
                 style="fill:none;stroke:#000000" /></g></g><g
             class="com.sun.star.drawing.CustomShape"
             id="g291"><g
               id="id24"><path
                 d="m 3032,5571 -254,0 0,-2667 508,0 0,2667 -254,0 z"
                 id="path294"
                 inkscape:connector-curvature="0"
                 style="fill:#3465a4;stroke:none" /><path
                 d="m 3032,5571 -254,0 0,-2667 508,0 0,2667 -254,0 z"
                 id="path296"
                 inkscape:connector-curvature="0"
                 style="fill:none;stroke:#000000" /></g></g><g
             class="com.sun.star.drawing.CustomShape"
             id="g298"><g
               id="id25"><path
                 d="m 12747,5571 -318,0 0,-2667 635,0 0,2667 -317,0 z"
                 id="path301"
                 inkscape:connector-curvature="0"
                 style="fill:#3465a4;stroke:none" /><path
                 d="m 12747,5571 -318,0 0,-2667 635,0 0,2667 -317,0 z"
                 id="path303"
                 inkscape:connector-curvature="0"
                 style="fill:none;stroke:#000000" /></g></g><g
             class="com.sun.star.drawing.CustomShape"
             id="g305"><g
               id="id26"><path
                 d="m 13192,5571 -254,0 0,-2667 508,0 0,2667 -254,0 z"
                 id="path308"
                 inkscape:connector-curvature="0"
                 style="fill:#3465a4;stroke:none" /><path
                 d="m 13192,5571 -254,0 0,-2667 508,0 0,2667 -254,0 z"
                 id="path310"
                 inkscape:connector-curvature="0"
                 style="fill:none;stroke:#000000" /></g></g><g
             class="com.sun.star.drawing.CustomShape"
             id="g312"><g
               id="id27"><path
                 d="m 13700,5571 -254,0 0,-2667 508,0 0,2667 -254,0 z"
                 id="path315"
                 inkscape:connector-curvature="0"
                 style="fill:#3465a4;stroke:none" /><path
                 d="m 13700,5571 -254,0 0,-2667 508,0 0,2667 -254,0 z"
                 id="path317"
                 inkscape:connector-curvature="0"
                 style="fill:none;stroke:#000000" /></g></g><g
             class="com.sun.star.drawing.CustomShape"
             id="g319"><g
               id="id28"><path
                 d="m 14208,5571 -254,0 0,-2667 508,0 0,2667 -254,0 z"
                 id="path322"
                 inkscape:connector-curvature="0"
                 style="fill:#3465a4;stroke:none" /><path
                 d="m 14208,5571 -254,0 0,-2667 508,0 0,2667 -254,0 z"
                 id="path324"
                 inkscape:connector-curvature="0"
                 style="fill:none;stroke:#000000" /></g></g><g
             class="com.sun.star.drawing.CustomShape"
             id="g326"><g
               id="id29"><path
                 d="m 14779,5571 -318,0 0,-2667 635,0 0,2667 -317,0 z"
                 id="path329"
                 inkscape:connector-curvature="0"
                 style="fill:#3465a4;stroke:none" /><path
                 d="m 14779,5571 -318,0 0,-2667 635,0 0,2667 -317,0 z"
                 id="path331"
                 inkscape:connector-curvature="0"
                 style="fill:none;stroke:#000000" /></g></g><g
             class="com.sun.star.drawing.CustomShape"
             id="g333"><g
               id="id30"><path
                 d="m 15224,5571 -254,0 0,-2667 508,0 0,2667 -254,0 z"
                 id="path336"
                 inkscape:connector-curvature="0"
                 style="fill:#3465a4;stroke:none" /><path
                 d="m 15224,5571 -254,0 0,-2667 508,0 0,2667 -254,0 z"
                 id="path338"
                 inkscape:connector-curvature="0"
                 style="fill:none;stroke:#000000" /></g></g><g
             class="com.sun.star.drawing.CustomShape"
             id="g340"><g
               id="id31"><path
                 d="m 15732,5571 -254,0 0,-2667 508,0 0,2667 -254,0 z"
                 id="path343"
                 inkscape:connector-curvature="0"
                 style="fill:#3465a4;stroke:none" /><path
                 d="m 15732,5571 -254,0 0,-2667 508,0 0,2667 -254,0 z"
                 id="path345"
                 inkscape:connector-curvature="0"
                 style="fill:none;stroke:#000000" /></g></g><g
             class="com.sun.star.drawing.CustomShape"
             id="g347"><g
               id="id32"><path
                 d="m 16240,5571 -254,0 0,-2667 508,0 0,2667 -254,0 z"
                 id="path350"
                 inkscape:connector-curvature="0"
                 style="fill:#3465a4;stroke:none" /><path
                 d="m 16240,5571 -254,0 0,-2667 508,0 0,2667 -254,0 z"
                 id="path352"
                 inkscape:connector-curvature="0"
                 style="fill:none;stroke:#000000" /></g></g><g
             class="com.sun.star.drawing.CustomShape"
             id="g354"><g
               id="id33"><path
                 d="m 10715,5571 -318,0 0,-2667 635,0 0,2667 -317,0 z"
                 id="path357"
                 inkscape:connector-curvature="0"
                 style="fill:#3465a4;stroke:none" /><path
                 d="m 10715,5571 -318,0 0,-2667 635,0 0,2667 -317,0 z"
                 id="path359"
                 inkscape:connector-curvature="0"
                 style="fill:none;stroke:#000000" /></g></g><g
             class="com.sun.star.drawing.CustomShape"
             id="g361"><g
               id="id34"><path
                 d="m 11160,5571 -254,0 0,-2667 508,0 0,2667 -254,0 z"
                 id="path364"
                 inkscape:connector-curvature="0"
                 style="fill:#3465a4;stroke:none" /><path
                 d="m 11160,5571 -254,0 0,-2667 508,0 0,2667 -254,0 z"
                 id="path366"
                 inkscape:connector-curvature="0"
                 style="fill:none;stroke:#000000" /></g></g><g
             class="com.sun.star.drawing.CustomShape"
             id="g368"><g
               id="id35"><path
                 d="m 11668,5571 -254,0 0,-2667 508,0 0,2667 -254,0 z"
                 id="path371"
                 inkscape:connector-curvature="0"
                 style="fill:#3465a4;stroke:none" /><path
                 d="m 11668,5571 -254,0 0,-2667 508,0 0,2667 -254,0 z"
                 id="path373"
                 inkscape:connector-curvature="0"
                 style="fill:none;stroke:#000000" /></g></g><g
             class="com.sun.star.drawing.CustomShape"
             id="g375"><g
               id="id36"><path
                 d="m 12176,5571 -254,0 0,-2667 508,0 0,2667 -254,0 z"
                 id="path378"
                 inkscape:connector-curvature="0"
                 style="fill:#3465a4;stroke:none" /><path
                 d="m 12176,5571 -254,0 0,-2667 508,0 0,2667 -254,0 z"
                 id="path380"
                 inkscape:connector-curvature="0"
                 style="fill:none;stroke:#000000" /></g></g><g
             class="com.sun.star.drawing.CustomShape"
             id="g382"><g
               id="id37"><path
                 d="m 9699,5571 -318,0 0,-2667 635,0 0,2667 -317,0 z"
                 id="path385"
                 inkscape:connector-curvature="0"
                 style="fill:#3465a4;stroke:none" /><path
                 d="m 9699,5571 -318,0 0,-2667 635,0 0,2667 -317,0 z"
                 id="path387"
                 inkscape:connector-curvature="0"
                 style="fill:none;stroke:#000000" /></g></g><g
             class="com.sun.star.drawing.CustomShape"
             id="g389"><g
               id="id38"><path
                 d="m 10144,5571 -254,0 0,-2667 508,0 0,2667 -254,0 z"
                 id="path392"
                 inkscape:connector-curvature="0"
                 style="fill:#3465a4;stroke:none" /><path
                 d="m 10144,5571 -254,0 0,-2667 508,0 0,2667 -254,0 z"
                 id="path394"
                 inkscape:connector-curvature="0"
                 style="fill:none;stroke:#000000" /></g></g><g
             class="com.sun.star.drawing.CustomShape"
             id="g396"><g
               id="id39"><path
                 d="m 16748,5571 -254,0 0,-2667 508,0 0,2667 -254,0 z"
                 id="path399"
                 inkscape:connector-curvature="0"
                 style="fill:#3465a4;stroke:none" /><path
                 d="m 16748,5571 -254,0 0,-2667 508,0 0,2667 -254,0 z"
                 id="path401"
                 inkscape:connector-curvature="0"
                 style="fill:none;stroke:#000000" /></g></g><g
             class="com.sun.star.drawing.CustomShape"
             id="g403"><g
               id="id40"><path
                 d="m 17256,5571 -254,0 0,-2667 508,0 0,2667 -254,0 z"
                 id="path406"
                 inkscape:connector-curvature="0"
                 style="fill:#3465a4;stroke:none" /><path
                 d="m 17256,5571 -254,0 0,-2667 508,0 0,2667 -254,0 z"
                 id="path408"
                 inkscape:connector-curvature="0"
                 style="fill:none;stroke:#000000" /></g></g></g></g></g></g></svg>