<?xml version="1.0" encoding="UTF-8" standalone="no"?>
<svg
   xmlns:dc="http://purl.org/dc/elements/1.1/"
   xmlns:cc="http://creativecommons.org/ns#"
   xmlns:rdf="http://www.w3.org/1999/02/22-rdf-syntax-ns#"
   xmlns:svg="http://www.w3.org/2000/svg"
   xmlns="http://www.w3.org/2000/svg"
   xmlns:sodipodi="http://sodipodi.sourceforge.net/DTD/sodipodi-0.dtd"
   xmlns:inkscape="http://www.inkscape.org/namespaces/inkscape"
   version="1.2"
   width="46.049782mm"
   height="35.790001mm"
   viewBox="0 0 4604.9783 3579.0002"
   preserveAspectRatio="xMidYMid"
   xml:space="preserve"
   id="svg2"
   inkscape:version="0.91 r13725"
   sodipodi:docname="nodeopt.svg"
   style="fill-rule:evenodd;stroke-width:28.22200012;stroke-linejoin:round"><metadata
     id="metadata138"><rdf:RDF><cc:Work
         rdf:about=""><dc:format>image/svg+xml</dc:format><dc:type
           rdf:resource="http://purl.org/dc/dcmitype/StillImage" /><dc:title></dc:title></cc:Work></rdf:RDF></metadata><sodipodi:namedview
     pagecolor="#ffffff"
     bordercolor="#666666"
     borderopacity="1"
     objecttolerance="10"
     gridtolerance="10"
     guidetolerance="10"
     inkscape:pageopacity="0"
     inkscape:pageshadow="2"
     inkscape:window-width="796"
     inkscape:window-height="864"
     id="namedview136"
     showgrid="false"
     fit-margin-top="0"
     fit-margin-left="0"
     fit-margin-right="0"
     fit-margin-bottom="0"
     inkscape:zoom="0.23838384"
     inkscape:cx="-331.12235"
     inkscape:cy="-305.75195"
     inkscape:window-x="800"
     inkscape:window-y="16"
     inkscape:window-maximized="0"
     inkscape:current-layer="svg2" /><defs
     class="ClipPathGroup"
     id="defs4"><clipPath
       id="presentation_clip_path"
       clipPathUnits="userSpaceOnUse"><rect
         x="0"
         y="0"
         width="21590"
         height="27940"
         id="rect7" /></clipPath></defs><defs
     class="TextShapeIndex"
     id="defs9" /><defs
     class="EmbeddedBulletChars"
     id="defs13" /><defs
     class="TextEmbeddedBitmaps"
     id="defs42" /><g
     id="g44"
     transform="translate(-1612,-1762)"><g
       id="id2"
       class="Master_Slide"><g
         id="bg-id2"
         class="Background" /><g
         id="bo-id2"
         class="BackgroundObjects" /></g></g><g
     class="SlideGroup"
     id="g49"
     transform="translate(-1612,-1762)"><g
       id="g51"><g
         id="id1"
         class="Slide"
         clip-path="url(#presentation_clip_path)"><g
           class="Page"
           id="g54"><g
             class="com.sun.star.drawing.LineShape"
             id="g56"><g
               id="id3"><path
                 d="m 1762,5191 0,-2999"
                 id="path59"
                 inkscape:connector-curvature="0"
                 style="fill:none;stroke:#000000" /><path
                 d="m 1762,1762 -150,450 300,0 -150,-450 z"
                 id="path61"
                 inkscape:connector-curvature="0"
                 style="fill:#000000;stroke:none" /></g></g><g
             class="com.sun.star.drawing.LineShape"
             id="g63"><g
               id="id4"><path
                 d="m 1762,5191 3634,0"
                 id="path66"
                 inkscape:connector-curvature="0"
                 style="fill:none;stroke:#000000" /><path
                 d="m 5826,5191 -450,-150 0,300 450,-150 z"
                 id="path68"
                 inkscape:connector-curvature="0"
                 style="fill:#000000;stroke:none" /></g></g><g
             class="com.sun.star.drawing.CustomShape"
             id="g70"><g
               id="id5"><path
                 d="m 2016,5191 -254,0 0,-508 508,0 0,508 -254,0 z"
                 id="path73"
                 inkscape:connector-curvature="0"
                 style="fill:#729fcf;stroke:none" /><path
                 d="m 2016,5191 -254,0 0,-508 508,0 0,508 -254,0 z"
                 id="path75"
                 inkscape:connector-curvature="0"
                 style="fill:none;stroke:#000000" /></g></g><g
             class="com.sun.star.drawing.CustomShape"
             id="g77"><g
               id="id6"><path
                 d="m 5191,5191 -254,0 0,-508 508,0 0,508 -254,0 z"
                 id="path80"
                 inkscape:connector-curvature="0"
                 style="fill:#729fcf;stroke:none" /><path
                 d="m 5191,5191 -254,0 0,-508 508,0 0,508 -254,0 z"
                 id="path82"
                 inkscape:connector-curvature="0"
                 style="fill:none;stroke:#000000" /></g></g><g
             class="com.sun.star.drawing.CustomShape"
             id="g84"><g
               id="id7"><path
                 d="m 3032,5190 -254,0 0,-1651 508,0 0,1651 -254,0 z"
                 id="path87"
                 inkscape:connector-curvature="0"
                 style="fill:#0084d1;stroke:none" /><path
                 d="m 3032,5190 -254,0 0,-1651 508,0 0,1651 -254,0 z"
                 id="path89"
                 inkscape:connector-curvature="0"
                 style="fill:none;stroke:#000000" /></g></g><g
             class="com.sun.star.drawing.CustomShape"
             id="g91"><g
               id="id8"><path
                 d="m 3603,5190 -318,0 0,-1651 635,0 0,1651 -317,0 z"
                 id="path94"
                 inkscape:connector-curvature="0"
                 style="fill:#0084d1;stroke:none" /><path
                 d="m 3603,5190 -318,0 0,-1651 635,0 0,1651 -317,0 z"
                 id="path96"
                 inkscape:connector-curvature="0"
                 style="fill:none;stroke:#000000" /></g></g><g
             class="com.sun.star.drawing.CustomShape"
             id="g98"><g
               id="id9"><path
                 d="m 4175,5191 -254,0 0,-2540 508,0 0,2540 -254,0 z"
                 id="path101"
                 inkscape:connector-curvature="0"
                 style="fill:#3465a4;stroke:none" /><path
                 d="m 4175,5191 -254,0 0,-2540 508,0 0,2540 -254,0 z"
                 id="path103"
                 inkscape:connector-curvature="0"
                 style="fill:none;stroke:#000000" /></g></g><g
             class="com.sun.star.drawing.CustomShape"
             id="g105"><g
               id="id10"><path
                 d="m 4683,5191 -254,0 0,-2540 508,0 0,2540 -254,0 z"
                 id="path108"
                 inkscape:connector-curvature="0"
                 style="fill:#3465a4;stroke:none" /><path
                 d="m 4683,5191 -254,0 0,-2540 508,0 0,2540 -254,0 z"
                 id="path110"
                 inkscape:connector-curvature="0"
                 style="fill:none;stroke:#000000" /></g></g><g
             class="com.sun.star.drawing.CustomShape"
             id="g112"><g
               id="id11"><path
                 d="m 2524,5191 -254,0 0,-508 508,0 0,508 -254,0 z"
                 id="path115"
                 inkscape:connector-curvature="0"
                 style="fill:#729fcf;stroke:none" /><path
                 d="m 2524,5191 -254,0 0,-508 508,0 0,508 -254,0 z"
                 id="path117"
                 inkscape:connector-curvature="0"
                 style="fill:none;stroke:#000000" /></g></g><g
             class="com.sun.star.drawing.LineShape"
             id="g119"><g
               id="id12"><path
                 d="M 6080,2778 5599,4028"
                 id="path122"
                 inkscape:connector-curvature="0"
                 style="fill:none;stroke:#000000" /><path
                 d="m 5445,4429 302,-366 -280,-108 -22,474 z"
                 id="path124"
                 inkscape:connector-curvature="0"
                 style="fill:#000000;stroke:none" /></g></g><g
             class="com.sun.star.drawing.LineShape"
             id="g126"><g
               id="id13"><path
                 d="m 5445,3032 762,762"
                 id="path129"
                 inkscape:connector-curvature="0"
                 style="fill:none;stroke:#990000" /></g></g><g
             class="com.sun.star.drawing.LineShape"
             id="g131"><g
               id="id14"><path
                 d="m 6207,3032 -889,762"
                 id="path134"
                 inkscape:connector-curvature="0"
                 style="fill:none;stroke:#990000" /></g></g></g></g></g></g></svg>